<svg xmlns="http://www.w3.org/2000/svg" viewBox="0 0 347.99 294.54"><defs><style>.cls-1{fill:#cecdcd;}</style></defs><g id="Capa_2" data-name="Capa 2"><g id="Capa_1-2" data-name="Capa 1"><g id="Capa_2-2" data-name="Capa 2"><g id="Capa_1-2-2" data-name="Capa 1-2"><path class="cls-1" d="M135.11,77.53c8.64,3.35,17.8,3.82,26.83,4.9a61.2,61.2,0,0,1,15.52,3.46,11.38,11.38,0,0,1,1.59.72c.19.1.28.38.45.62-.85.59-1.71.11-2.36-.13-7.16-2.54-14.67-2.68-22.09-3.4a119.61,119.61,0,0,1-20.49-3.77,3.49,3.49,0,0,0-4,1.09c-1.44,1.54-2.78,3.27-4.84,4.2,1.34-2.89,2.69-5.77,5.37-7.69Z"/><path class="cls-1" d="M249,134.26c-.36,6.34-2.62,12.31-4.18,18.42-.36,1.41-.74,3,1.83,2.12.62-.22,1.43,0,1.34.95s-.62.93-1.42.89c-4.63-.25-5.85-2.53-3.48-6.54a14.8,14.8,0,0,0,1.78-4.9c.55-3,1.22-6,2-9,1.21-4.7,0-8.88-2.35-12.9-.39-.67-1.3-1.34-.51-2.15a2.65,2.65,0,0,1,2.82-.46c1.1.33.89,1.34.72,2.11-.48,2.1,1,3.62,1.46,5.44Z"/><path class="cls-1" d="M215.67,139c.15,2.38.18,4.75.46,7.09a93.58,93.58,0,0,1-.41,21.68,100.37,100.37,0,0,1-4.57,21.19c-.19.56-.63,1.47.26,1.74a1.45,1.45,0,0,0,1.82-1.26c.49-2.1.9-4.22,1.35-6.33.17-.78.11-2,1.18-1.9s.71,1.34.74,2.07a14.08,14.08,0,0,1-.23,3.49c-.32,1.44-1.07,3.42,1.94,2.68,1-.22,1.13.43,1,1.42-.38,2.33-2.42,2.16-4.18,2.81,1.74,1.34,3.18.37,4.61,0,.58-.15,1.19-.43,1.59.15s-.15.92-.4,1.34c-1,1.63-1.91,3.35-3.06,4.86-.91,1.2-1.79,2.38-3.9,2s-2.27,1.6-2.29,3.1a38.21,38.21,0,0,1-1.2,9.4c-1.15,4.32-4.59,6.86-7.64,9.59a44.47,44.47,0,0,1-3.11,3.18,1,1,0,0,0-.23,1.46.44.44,0,0,0,.09.11c.55.67,1.22,1.45-.13,1.89-1.12.36-1.88-.13-2.21-1.34a10.24,10.24,0,0,0-1.16-2.75c-.56-.88-1.62-1.57-2.55-1.11-1.22.6-.16,1.6.13,2.35,1.81,4.52.84,6.3-3.92,7.06-.6.09-1.34.14-1.45.75-.24,1.7-1.53,1.77-2.74,1.95-2,.32-4.13.44-5.53,2.34a1.71,1.71,0,0,1-1.88.34c-1.9-.47-3.77-1-5.14,1.09a.94.94,0,0,1-.89.11c-1.52-.83-2.9-1.26-3.89.74-.1.22-.61.55-.82.14-1.69-3.26-5-1.58-7.44-2.31-1.5-.45-3-.45-4.21-1.74a3.41,3.41,0,0,0-1.51-.86c-2.36-.68-4.42-1.28-5.36-4.28-.55-1.84-3.22-2.35-5.26-2.94-.86-.24-2.31,0-2.44-1.29-.09-1-.16-2,1.4-2.63,1.15-.45.14-1.75-.74-2.25a36.88,36.88,0,0,0-3.77-1.62c3-1.38,1.62-3,.67-4.7q-1.09-2-2-4c-.78-1.69-1.59-2.73-3.9-2.6s-3.9-1.76-4.75-3.88a14.9,14.9,0,0,1-1.15-5.09c0-1.54-.34-3.12,2.09-2.74.41.07.88-.06.94-.58s-.35-.75-.7-.94a15,15,0,0,1-3.5-3.2,6,6,0,0,1-1.81-4.27c0-1.49.92-3.42-1.8-3.54-.19,0-.43-.49-.52-.79-1.91-6.26-2.12-12.75-2.75-19.22-.34-3.56,1-6.86.88-10.37-.06-1.07,1.16-.22,1.75,0s1.47,1.45,2,.27c.39-.84-.77-1.45-1.54-1.63-2.61-.61-2.79-2.11-1.86-4.27a26.57,26.57,0,0,0,1.16-3.81c.17-.67.67-1.6-.39-1.93-1.83-.56-1.8-1.73-1.55-3.35.41-2.58-1.34-4.7-1.68-7.23-1.14-8.61,2.53-18.18,14.28-18.55,7-.21,13.73-2.44,20.53-4,10.38-2.39,20.7-5,31.54-4.53a22.08,22.08,0,0,0,7.17-1c5.2-1.52,9,.63,12.56,4,3.83,3.73,7.69,7.38,11.57,11.08,5,4.74,5.79,10.42,3.77,16.72-.29.9-.48,2.15-1.57,2.35S216.88,139.1,215.67,139Zm-33.25,69.11c-2.28-3.54-5-6.71-5.14-10.86,0-1.93-.67-1.61-1.76-1.34-2.8.79-5.61,1.55-8.36,2.49a2.7,2.7,0,0,1-3.36-.84c-1.41-2.19-3.51-2.14-5.65-2.37-3.65-.38-4.25-1.16-4.17-4.78,0-.47.21-1.11-.42-1.29s-.94.21-1.24.67a5.19,5.19,0,0,0-1,2.19c-.36,2.11,1.25,2.93,2.38,4.08,2.52,2.6,2.76,4.54.89,7.58a16.39,16.39,0,0,1-6,5.52c-5.53,3.23-5,4.24-2.84,8.84.77,1.6,1.57,1.56,3.13,1.22,2-.42,3.88-2.68,6.21-.67.34.29.76-.36.89-.67.67-1.62,2.2-1.92,3.64-2.27,2-.49,4-1,6.08-1.34,2.68-.5,5.46-1.34,8.1-.13,3.35,1.57,6.79,1.41,10.29,1.4,4.21,0,5.09-1.31,3.56-5.37a10.22,10.22,0,0,0-1.18-2.18c-1.8-2.56-2.19-2.56-4.06.09ZM160,174.36l.61-.27c-.3-4.93-.21-9.93-1-14.76-.75-4.48-3-5.83-7.54-5.79-3.58,0-7.28.55-10.74.11-6.12-.78-10.85,1.7-15.6,4.7a3.57,3.57,0,0,0-2,3.76,38.94,38.94,0,0,1,.67,4.69c.09,2.26,1.52,3.28,3.25,4.27,3.4,1.94,7,1.85,10.74,2,4.79.22,8.85-.37,12.56-3.4a3.16,3.16,0,0,1,4.85.44C157.19,171.57,158.61,172.94,160,174.36Zm27.86-.67c2.35.86,4.35,1,6,0,2.78-1.67,5.68-2,8.82-2.06,2-.06,4.27-.87,4.91-3.16a37.61,37.61,0,0,0,.62-5.94c.16-1.61-.5-2.32-2.15-2.69q-14.19-3.34-28.31-7a4.42,4.42,0,0,0-4.21.67c-.8.6-1.8,1.34-2.69.46-1.34-1.34-2.5-1.82-3.92-.17-.2.23-.81.08-1.21.16-.62.13-1.58-.71-1.77.62-.15,1.05.48,1.3,1.34,1.7,3,1.34,5,3.43,5.17,7,.16,3.08,1,5.44,5.28,5.56,1.34,0,3.6-.3,4,1.23.91,3.68,3.52,3,6,3-.85-.67-1.83-1.06-2.68-1.64-1.34-.88-2.43-1.91-1.07-3.63s2.32-.89,3.51.19c1.85,1.66,3.85,3.08,6.41,1.2.7-.52,1.41-.24,2.14,0s1.26.5,1.34,1.29c.08,1-.72.92-1.34,1.15-1.89.67-4,.63-6.19,2Zm-15.71,46.12c-4.37-2-8.63-1.54-12.79.67C163.68,221.71,168,222.05,172.13,219.81Zm-37.47-39.13c1,2.47,3,2.82,5.14,2.56,2.47-.3,4.35-1.6,5.58-4.47C141.76,180.79,138.43,181.86,134.66,180.68Z"/><path class="cls-1" d="M148,283.63l-2.45,3.42c-.67,1-1.25,1.14-1.56-.25a52.29,52.29,0,0,1-1.13-5.37c-.24-2,.77-2.92,2.83-2.73,4.58.44,5.3,1,6.11,5.46.23,1.24.67,1.46,1.6.91,4.75-2.73,9.81-1.53,14.29,0,2.5.86,3.25-.26,4.45-1.2,1.57-1.22,2.86-2.8,4.32-4.17,1.11-1.05,1.85-.74,2.28.7.67,2.33-.22,4.31-1.4,6.14-3.63,5.65-8.35,8.87-15.51,7.16-2.05-.5-4.32-.12-6.49-.13-5.31,0-6.8-1.56-6.85-6.9A4.91,4.91,0,0,0,148,283.63Z"/><path class="cls-1" d="M186.35,273a32.19,32.19,0,0,1,7.7-.79,6.28,6.28,0,0,0,4.57-1.7c.43-.35,1-.79.8-1.42-.33-.84-1.14-.58-1.75-.41-1.81.5-3.53,1.38-6,1.1,2.68-2.35,5-4.42,7.32-6.43,1.26-1.08,2.62-2,3.9-3.11.53-.44,1.34-.86.6-1.81a1.43,1.43,0,0,0-2-.51.8.8,0,0,0-.21.15c-1.08.78-2.12,1.6-3.14,2.47-2.36,2-5.17,3.35-7.79,4.94-2,1.22-3.48-.15-5-1-.67-.4-.16-.88.15-1.22.56-.64,1.24-1.37,2.1-.61,1.34,1.21,2-.06,3.08-.5,3.42-1.34,4.91-4.14,6.75-7.07,1.6-2.56,4.63-4.23,7-6.29a1.09,1.09,0,0,1,1.34-.11c.55.3.53.67.44,1.26-.42,2.78-1,5.52-.35,8.41a3.91,3.91,0,0,1-1.54,3.53,9.66,9.66,0,0,0-2.39,3.17c-.53,1.19-.39,1.91,1,2.2,1.19.25,1,.88.41,1.61-2.81,3.71-10.06,7-14.91,5.67A3.25,3.25,0,0,1,186.35,273Z"/><path class="cls-1" d="M147.44,248.24c-5.09-.74-9.75-1.66-13.54-5.11-5-4.55-6.17-10.42-5.93-16.77.05-1.4.89-1,1.45-.34,1.34,1.46,2.69,3,4,4.49,4.23,5,8.43,10.07,12.65,15.11A5.77,5.77,0,0,1,147.44,248.24Z"/><path class="cls-1" d="M182.43,294.54c-3.56,0-4-.72-3.07-3.79,3-9.72,1.22-7.51,10.68-11.25,1.86-.73,3.7-1.54,5.57-2.19.63-.21,1.46-.76,2,.13s-.21,1.25-.57,1.76c-2.68,3.82-5.6,7.42-8.54,11-1.45,1.78-2.74,3.57-5.14,4.07Z"/><path class="cls-1" d="M171,268.89l-1-.67c-.63-.54-2.68.38-1.83-1.65.58-1.34.9-3.2,3.26-2.34,2.89,1,5.83,2,8.78,2.83,1.5.44,1.65,1.15.91,2.36-1.12,1.83-2.45,3.39-4.7,3.8-1.42.26-2.25.9-2.05,2.52.08.72.13,1.68-.81,1.87s-1-.72-1.34-1.29c-.59-1.22-1.11-2.28-2.24-.4-.14.24-.67.51-.83.43-2.75-1.7-2.95.77-3.81,2.72-.9-2.59-2.16-2.15-3.54-.89a7.76,7.76,0,0,1-1.05.67c-.56.37-1.1.89-1.75.2s-.06-1.34.41-1.91a29.14,29.14,0,0,1,9.09-6.91Z"/><path class="cls-1" d="M206.65,242.47c.67-4.06,1.34-8.33,2.21-12.56a7.05,7.05,0,0,0-.62-5.25c-1.49-2.68.93-6.78,4-6.66s5.45-.38,6.71-3.71c.73-1.92,2.77-2.84,4.79-3.28a6.7,6.7,0,0,0,5.22-4.49,6.55,6.55,0,0,1,4.66-4.14c1.25-.36,2.18-1.12,2.09-2.45-.15-2.43,1.76-3.67,2.85-5.37a.91.91,0,0,1,1.21-.44l.08,0c.55.31.47.78.3,1.3-1.26,3.65-2,7.47-6.42,9.16-1.88.71-3.09,3.15-4.64,4.78-.67.72-1.34,1.85-2.17,2-6.63,1.31-8.49,8.47-13.95,11.19-1.58.79-1.75,2.63-1.87,4.17a55.14,55.14,0,0,1-2.13,11.74,14.23,14.23,0,0,0-.33,5.7c.07.67.73,1.64-.34,1.84-.9.17-1.41-.73-1.55-1.62C206.66,243.85,206.69,243.26,206.65,242.47Z"/><path class="cls-1" d="M154.68,266.6a5.31,5.31,0,0,1,1.73.22c2.68,1.34,5.11,1.81,7.66-.55,1.25-1.15,1.89.52,2.56,1.42.91,1.21,0,1.62-.84,2a70.93,70.93,0,0,0-9.73,5.57c-1.91,1.34-4,.79-6,0-2.36-1-4.7-2.23-6.22,1.17-.17.36-.76.61-1,.2-.48-.67-1-1.43-.5-2.26a3.17,3.17,0,0,1,1.39-1,19.85,19.85,0,0,0,7.19-5.24A4.07,4.07,0,0,1,154.68,266.6Z"/><path class="cls-1" d="M206.73,231.18c.06,4.75-1,9.07-1.94,13.42a2.52,2.52,0,0,1-1.73,2q-5.42,1.69-10.83,3.36l-.52-.67Z"/><path class="cls-1" d="M247.56,157.74c-1,4.51-2,9-3.1,13.54q-2.06,8.72-4.2,17.44c-.15.59.11,1.82-1.08,1.57-1-.22-.67-1.11-.5-1.87,1.14-5.2,2.47-10.37,3.26-15.63.35-2.35,2-4.95-.18-7.33a.72.72,0,0,1,0-.67C243.48,162.35,244.91,159.66,247.56,157.74Z"/><path class="cls-1" d="M114.71,212.62a66.1,66.1,0,0,1-11.64-5.16,1.5,1.5,0,0,1-.67-1.53c.28-2.26-.82-3.79-2.51-5.08-.59-.43-1.29-1-.63-1.87a1.78,1.78,0,0,1,2.06-.42c2.14.61,3.93,3.56,3.14,5.78-.56,1.56,0,2,1.19,2.62,3.18,1.54,6.31,3.17,9.45,4.77Z"/><path class="cls-1" d="M187.05,247.29a4.92,4.92,0,0,1,2-3.67c1.93-1.55,4-2.87,6.09-4.27.47-.32,1-.8,1.5-.13s.07,1.1-.34,1.52l-7.38,7.42c-.41.4-.87.84-1.53.42A1,1,0,0,1,187.05,247.29Z"/><path class="cls-1" d="M183.17,88.94a20.54,20.54,0,0,1,8.17,1.8c3.46,1.51,6.71,3.83,10.88,2.1-1.61,1.79-3.5,2.93-5.74,2.23C191.81,93.59,187.8,90.61,183.17,88.94Z"/><path class="cls-1" d="M211.31,94.7c6.45,1.91,11.57,6.89,19.06,7.56a3.33,3.33,0,0,1-3.35.95C220.91,102.05,216.11,98.38,211.31,94.7Z"/><path class="cls-1" d="M140.83,171.18c-.77-.14-1.59-.22-2.39-.43s-1.92-.43-1.86-1.65a3,3,0,0,1,1.48-2.49c1.16-.67,1.39.6,1.87,1.12,2,2.15,3.95,1.5,6.09.33.61-.33,1.42-1.51,2.08-.53s-.29,2-1.15,2.45C145.08,171,142.93,170.79,140.83,171.18Z"/></g></g><path class="cls-1" d="M65,107.22A22.82,22.82,0,0,0,60.82,97L46.11,77.58c-1.88,1.43-2.81,2.16-4.66,3.64a227.71,227.71,0,0,0,16,18l0,.06a157,157,0,0,0-15.58,13.87l-1-1c2-2,3.08-3,5.18-5-2.69-2.93-4-4.39-6.73-7.31-7.56-8.07-15-17-24.64-22.71-2,1.88-3,2.83-4.91,4.78l-1-1c8.5-8.4,15.66-15.68,18.56-19.1a155.65,155.65,0,0,0,13,18.1l.18.22c1.86-1.5,2.8-2.23,4.69-3.67L25.6,50.56c1.95-1.81,2.94-2.7,4.93-4.46a21.16,21.16,0,0,0,4,12.44l2.15,2.89c-.91-4.27.76-8.12,5.7-11.54,6.68-4.63,23.8-11.16,27.6-2.8,3.48,7.67-6.3,17.24-13.83,22.44,6.7-4.94,21.56-11.24,26.92-1.31,4.38,8.12-2.63,15.89-11.87,22-4.8,3.17-8.62,3.18-12.52.79l9.67,13C67,105.28,66.32,105.92,65,107.22Zm-18.09-32c1.49-1.11,2.24-1.66,3.74-2.73,7.55-5.37,8.29-10.22,4.58-16.14s-8.52-7.55-13.08-4.44c-6.89,4.69-3.32,12.45,3.51,21.63Zm22.72.67c-4.11-6.69-9.46-8.41-18.14-2.23-1.5,1.07-2.24,1.61-3.72,2.72l2.4,3.23c6.71,9,12.72,14.41,19,10.16C73.16,87.07,73.38,82,69.62,75.85Z"/><path class="cls-1" d="M106.32,64.28a91.79,91.79,0,0,1-3.51,8.87A27.42,27.42,0,0,1,89.6,70.36a25.2,25.2,0,0,0-2.74-8.9l-.77-1.63c2-1.53,2.94-2.28,5-3.75-3.94.77-6.54-.28-7.52-2.37-.77-1.63-.26-4.18.86-6.74,1.35-3,2.06-4.55,3.55-7.58C94.37,37.78,97.6,37.1,104,36c2.86-.49,4.57,1,5.47,3.91,1,3.11,1.46,4.66,2.43,7.77A48.26,48.26,0,0,1,114,57.52c1.5,1.19,3.24,1.76,6.16,2.5a23.71,23.71,0,0,0,1.28-2.16l1.46.72a56.84,56.84,0,0,0-5.68,9.33A29.51,29.51,0,0,1,106.32,64.28Zm-4.74-14.61L99.71,44.6a67.64,67.64,0,0,0-13.1,2.8,6.37,6.37,0,0,0,.1,3.58c1.18,2.63,3.7,4.1,9.26,1.86A25.86,25.86,0,0,0,101.58,49.67Zm2.57,15.27c1.18-3.46.07-8.11-1.05-11.15l-1-2.77a31.3,31.3,0,0,1-6.92,3.78l-.18.07.36.87a32.72,32.72,0,0,1,2,7.5A16.82,16.82,0,0,0,104.15,64.94Z"/><path class="cls-1" d="M132.1,42.4a42.9,42.9,0,0,1,1.08,10.08,14.33,14.33,0,0,0,5,3.26,23,23,0,0,0,1.48-2l1.38.85a57.08,57.08,0,0,0-6.51,8.74c-3.65-.76-7.76-3.3-10.53-5.62.24-2.82,0-5.21-1.22-10-2.6-10-3.89-15.06-6.49-25.1-2.33-.17-3.51-.24-5.87-.35-.56.68-1.08,1.51-1.69,2.36L107,24c2.57-3,4.85-6.06,7.65-9.75,4,.15,5.92.27,9.81.59l-1.6-7.47L126,6.1a26.1,26.1,0,0,0,.5,8.94Z"/><path class="cls-1" d="M155.51,60a25,25,0,0,1-12.44-6.38c.52-2.78.52-5.18-.23-10-1-6.32-1.46-9.48-2.43-15.8-2.11.47-4.21,1-6.47,1.67.27-1.34.41-2,.69-3.34,2.15-.39,3.23-.56,5.39-.89l-.75-4.84c3.53-2.15,5.33-3.18,9-5.18-.32-2.92-.49-4.38-.81-7.3,1.24-.4,1.86-.6,3.1-1-.39,3.59-.78,4.86-.36,8.94.33,3.18.5,4.77.82,8,4.18-.43,6.28-.6,10.47-.83-.45,1.18-.67,1.77-1.11,2.95-2.06,0-5.3,0-9.1.31.6,5.85.9,8.77,1.51,14.62a35.07,35.07,0,0,1-.1,8.48,19.43,19.43,0,0,0,7,3.63c.72-.71,1.36-1.47,2.17-2.39.52.4.77.6,1.28,1a51.64,51.64,0,0,0-4.25,4.25C157.53,57.53,156.85,58.36,155.51,60Z"/><path class="cls-1" d="M165.06,51.4c.83-2.7,1.1-5.09.91-10-.16-4-.23-5.92-.39-9.86a21.6,21.6,0,0,0-5.28-2.11,17.4,17.4,0,0,0-1.89,1.79l-1.42-1c2.9-2.32,5.56-4.86,8.83-7.86,2.61.88,3.9,1.35,6.46,2.3,3.64,1.35,4,3.25,4,5.41,0,3.23-.05,4.84-.08,8.06a40.71,40.71,0,0,1-1.07,10.08c1,1.59,2.51,2.67,5,4.27A24.82,24.82,0,0,0,182,50.86c.46.45.7.67,1.16,1.13A55.73,55.73,0,0,0,175,59.12,28.47,28.47,0,0,1,165.06,51.4Zm7.61-44c2.46,1.28,3.68,1.94,6.07,3.28-6.15,2.88-9.13,4.41-14.89,7.67l-1.25-.74A38.85,38.85,0,0,1,172.67,7.35Z"/><path class="cls-1" d="M220.54,56.81c1.56-2.36,2.5-4.58,3.7-9.32l2.42-9.57a42.89,42.89,0,0,0-6.42-3.72,19.16,19.16,0,0,0-2.72,1.7c-.54,2.63-.81,3.94-1.36,6.56a40.13,40.13,0,0,1-3,9.68c.76,2,2.33,3.48,5,6-3,1.82-4.42,2.76-7.25,4.69a28.48,28.48,0,0,1-8.25-9.47c1.34-2.5,2.06-4.79,2.82-9.63.62-4,.93-6,1.56-10a52.54,52.54,0,0,0-6.77-2.82c-.85.62-1.8,1.31-2.75,2.14-.28,2.58-.43,3.87-.71,6.44a39.86,39.86,0,0,1-2.07,9.92c.95,1.91,2.64,3.24,5.54,5.46-2.78,2.09-4.13,3.16-6.76,5.35a28.33,28.33,0,0,1-9.07-8.66c1.09-2.61,1.59-5,1.89-9.85.25-4.2.38-6.29.63-10.49-2-.87-3-1.3-5.07-2.12-.69.48-1.39,1.1-2.17,1.73l-1.31-1.11c3.11-2,6-4.29,9.56-6.95,4.15,1.61,6.2,2.47,10.21,4.27l-.38,3.44A35.85,35.85,0,0,1,206,24.53c5.2,2.12,7.75,3.25,12.73,5.66l-.65,3.17a35.77,35.77,0,0,1,8.44-4.9c3.45,2,5.15,3,8.48,5.13,3.05,1.92,3,4,2.4,6-.94,3.09-1.42,4.63-2.36,7.71a40.18,40.18,0,0,1-3.89,9.36c.56,1.82,1.67,3.28,3.66,5.53a21.73,21.73,0,0,0,2.29-1l.8,1.41a56.42,56.42,0,0,0-10,4.5A28.52,28.52,0,0,1,220.54,56.81Z"/><path class="cls-1" d="M237.81,61.89c1.78-2.2,2.92-4.32,4.55-8.93L246,42.64c2.51.33,3.77.52,6.28.93,3.27-1.64,4.93-2.43,8.32-3.94,4.24,2.8,6.32,4.27,10.37,7.3,5.14,3.86,5.49,5.29,2,12l-6.2,11.72a69.85,69.85,0,0,0-17.69,4.17C244.84,71.61,238.89,65.7,237.81,61.89Zm17.66,8.69c2.06-3.81,3.94-7.39,5.73-11.24,1.07-2.28,2.05-4.61,3.12-7.13a91.46,91.46,0,0,0-8.06-6l-3.1,7.52a38.53,38.53,0,0,1-4.48,8.29C249.88,64.56,252.05,67.16,255.47,70.58Z"/><path class="cls-1" d="M271.46,77.26c2.17-1.82,3.7-3.68,6.18-7.9L283,60.29c-1.46-1.72-2.2-2.58-3.7-4.27-.85.11-1.77.34-2.76.54l-.7-1.6c3.76-.36,7.44-1,11.9-1.74,3.08,3.39,4.57,5.12,7.45,8.64l-2,3.07a37.94,37.94,0,0,1,10.43-1.41c1.89,3.78,2.78,5.69,4.46,9.51-3.36.27-5,.45-8.3.86l-2.94,4c-.88-.36-1.32-.54-2.2-.88A26.78,26.78,0,0,0,298.07,73,31.93,31.93,0,0,0,295,66.5a32.19,32.19,0,0,0-3.26.59c-1.37,2.1-2.06,3.14-3.44,5.24a36.57,36.57,0,0,1-6.38,7.87c0,1.88.75,3.67,2.06,6.33,1-.13,1.92-.25,3-.42l.4,1.61a52.38,52.38,0,0,0-6.13.54c-2.17.38-3.24.58-5.37,1A29.16,29.16,0,0,1,271.46,77.26Z"/><path class="cls-1" d="M292.62,91.43c2.37-1.45,4.13-3.09,7.05-6.84-1.25-.88-2.67-1.69-4.39-2.7.87-.36,1.31-.53,2.19-.88,1.26.94,1.88,1.42,3.12,2.39l5.89-7.56c2.78,1.4,4.16,2.14,6.92,3.66,3.67-.38,5.53-.53,9.27-.74,2,4,3,5.95,4.8,10,1.17,2.55.44,5-2.72,4.69-4.68-.36-9.41-1.16-14.21-1.75,3.44,3,5.12,4.62,8.43,7.88l-2.12.34A93.82,93.82,0,0,0,308,91.19a34.17,34.17,0,0,1-4.81,4.12,34,34,0,0,0,4,10.27l3.35.13c.08.67.11,1,.18,1.68a52.69,52.69,0,0,0-6.25-.51c-2.23,0-3.34,0-5.54.09C295.79,102.51,292.51,95.44,292.62,91.43Zm25.94-.34A32.88,32.88,0,0,0,315.21,83l-6,6.91C312.31,90.24,315.25,90.66,318.56,91.09Z"/></g></g></svg>